<?xml version="1.0" encoding="utf-8"?>
<!-- Generator: Adobe Illustrator 16.0.0, SVG Export Plug-In . SVG Version: 6.00 Build 0)  -->
<!DOCTYPE svg PUBLIC "-//W3C//DTD SVG 1.1//EN" "http://www.w3.org/Graphics/SVG/1.1/DTD/svg11.dtd">
<svg version="1.1" id="Layer_1" xmlns="http://www.w3.org/2000/svg" xmlns:xlink="http://www.w3.org/1999/xlink" x="0px" y="0px"
	 width="792px" height="612px" viewBox="0 0 792 612" enable-background="new 0 0 792 612" xml:space="preserve">
<g>
	<path fill-rule="evenodd" clip-rule="evenodd" fill="#121441" d="M283.532,330.544h50.792v-50.795h-50.792V330.544L283.532,330.544
		z M316.086,283.629L316.086,283.629c8.978,2.942,15.465,11.453,15.49,21.508c0.024,9.892-6.333,18.383-15.49,21.519V283.629
		L316.086,283.629z M308.919,282.479L308.919,282.479c1.622,0,3.349,0.216,4.789,0.502c0,11.508-11.129,20.978-22.616,20.978
		l-4.803-0.007C287.076,292.155,296.837,282.479,308.919,282.479L308.919,282.479z M291.096,306.355L291.096,306.355
		c11.484,0,22.61,9.46,22.61,20.958c-1.438,0.294-3.25,0.511-4.787,0.511c-12.086-0.016-22.177-9.723-22.634-21.468H291.096z"/>
	<path fill-rule="evenodd" clip-rule="evenodd" fill="#121441" d="M351.325,309.61v-3.201h10.568v-4.083h-10.57v-5.943h11.244
		v-4.071h-15.57v8.75v8.363c0,4.325,1.843,7.284,6.167,7.893c0.087,0.021,0.172,0.037,0.251,0.038h0.079
		c0.443,0.05,0.896,0.083,1.369,0.083h8.004v-4.067h-7.969C353.524,313.372,351.325,312.694,351.325,309.61z"/>
	<polygon fill-rule="evenodd" clip-rule="evenodd" fill="#121441" points="365.942,304.186 365.942,317.445 370.27,317.445 
		370.27,304.099 370.27,292.306 365.942,292.306 	"/>
	<path fill-rule="evenodd" clip-rule="evenodd" fill="#121441" d="M382.68,298.692c-5.471,0-9.564,3.768-9.564,9.637v0.146
		c0,5.724,3.949,9.419,9.673,9.419c2.753,0,5.325-0.761,7.68-3.261l-2.608-2.536c-1.377,1.377-2.717,2.102-4.927,2.102
		c-3.224,0-5.362-1.884-5.507-4.782h14.202c0.073-0.725,0.073-1.521,0.073-1.521C391.701,302.787,388.114,298.692,382.68,298.692
		L382.68,298.692z M377.535,306.373L377.535,306.373c0.181-2.21,2.428-3.985,5.145-3.985c2.536,0,4.601,1.812,4.601,3.985H377.535z"
		/>
	<path fill-rule="evenodd" clip-rule="evenodd" fill="#121441" d="M403.862,302.569c1.956,0,3.405,0.725,4.637,1.993l2.682-2.79
		c-2.102-2.247-4.602-3.152-7.318-3.152c-5.507,0-9.927,4.094-9.927,9.673c0,5.579,4.42,9.674,9.927,9.674
		c2.717,0,5.217-0.906,7.318-3.152l-2.682-2.79c-1.231,1.269-2.681,1.992-4.637,1.992c-3.188,0-5.616-2.427-5.616-5.724
		C398.246,304.997,400.674,302.569,403.862,302.569z"/>
	<path fill-rule="evenodd" clip-rule="evenodd" fill="#121441" d="M418.202,309.616h-0.005v-6.418h3.937v-3.932h-3.931v-6.959
		h-4.329v9.017v8.549l0.013-0.001c0.123,4.084,1.979,6.866,6.155,7.453c0.087,0.021,0.172,0.037,0.25,0.039h0.08
		c0.442,0.049,0.896,0.082,1.369,0.082h0.457l0.017-4.066h-0.438C420.401,313.379,418.202,312.7,418.202,309.616z"/>
	<path fill-rule="evenodd" clip-rule="evenodd" fill="#121441" d="M430.068,301.971v-2.703h-4.293v8.908v9.27h4.293v-9.559
		c0-2.993,1.911-4.869,4.903-4.869c0.686,0,1.3,0.072,1.805,0.181v-4.184c-0.181-0.036-0.829-0.107-1.298-0.107
		C432.88,298.907,430.933,300.097,430.068,301.971z"/>
	<path fill-rule="evenodd" clip-rule="evenodd" fill="#121441" d="M447.358,298.727c-5.52,0-9.92,4.183-9.92,9.63
		c0,5.444,4.4,9.631,9.92,9.631c5.481,0,9.918-4.187,9.918-9.631C457.276,302.909,452.84,298.727,447.358,298.727L447.358,298.727z
		 M447.358,314.056L447.358,314.056c-3.21,0-5.626-2.489-5.626-5.699c0-3.211,2.416-5.699,5.626-5.699
		c3.175,0,5.626,2.488,5.626,5.699C452.984,311.566,450.533,314.056,447.358,314.056z"/>
	<polygon fill-rule="evenodd" clip-rule="evenodd" fill="#121441" points="459.938,303.752 459.938,317.445 464.269,317.445 
		464.269,303.926 464.269,292.306 459.938,292.306 	"/>
	<path fill-rule="evenodd" clip-rule="evenodd" fill="#121441" d="M479.878,309.834c0,2.885-1.694,4.113-3.969,4.113
		c-2.271,0-3.967-1.229-3.967-4.075v-10.604h-4.364v5.265v5.7c0,5.194,3.787,7.683,8.296,7.683c4.545,0,8.366-2.524,8.366-7.791
		v-5.591v-5.265h-4.362V309.834z"/>
	<polygon fill-rule="evenodd" clip-rule="evenodd" fill="#121441" points="500.617,311.633 497.888,307.815 501.268,303.211 
		504.162,299.268 499.438,299.268 495.506,304.713 491.538,299.268 486.85,299.268 489.538,302.945 493.126,307.852 
		489.366,313.087 486.236,317.445 490.89,317.445 495.506,311.025 500.122,317.445 504.775,317.445 	"/>
</g>
</svg>
